PathFileType	4	(X/Y/Z)	TVC_39_BWA_03_walk_RCNL2025.trc
DataRate	CameraRate	NumFrames	NumMarkers	Units	OrigDataRate	OrigDataStartFrame	OrigNumFrames
100	100	7	27	mm	100	442	1176
Frame#	Time	R_Shoulder			L_Shoulder			C7			J_Notch			R_Elbow			L_Elbow			R_Wrist			L_Wrist			R_Asis			L_Asis			R_Psis			L_Psis			Sacral			Thoracic			Sternum			R_Thigh_Lateral			R_Knee_Lateral			R_Shank_Lateral			R_Ankle_Lateral			R_Heel			R_Toe			L_Thigh_Lateral			L_Knee_Lateral			L_Shank_Lateral			L_Ankle_Lateral			L_Heel			L_Toe		
		X1	Y1	Z1	X2	Y2	Z2	X3	Y3	Z3	X4	Y4	Z4	X5	Y5	Z5	X6	Y6	Z6	X7	Y7	Z7	X8	Y8	Z8	X9	Y9	Z9	X10	Y10	Z10	X11	Y11	Z11	X12	Y12	Z12	X13	Y13	Z13	X14	Y14	Z14	X15	Y15	Z15	X16	Y16	Z16	X17	Y17	Z17	X18	Y18	Z18	X19	Y19	Z19	X20	Y20	Z20	X21	Y21	Z21	X22	Y22	Z22	X23	Y23	Z23	X24	Y24	Z24	X25	Y25	Z25	X26	Y26	Z26	X27	Y27	Z27
442	4.41000000	64.800446	1476.300537	46.596592	104.331635	1484.409058	-319.552429	49.877899	1544.320190	-143.229050	197.252029	1419.051880	-132.803482	73.552467	1163.010376	174.908752	30.015285	1175.499878	-436.996124	193.077255	936.824982	153.816952	106.289207	923.974030	-421.354248	139.605667	948.910461	12.899261	164.055161	934.120667	-283.405487	-50.658413	964.574158	-94.306137	-44.317719	956.117310	-200.537247	-47.488066	960.345734	-147.421692	-40.484245	1216.289429	-160.039047	239.532959	1258.307251	-119.816032	119.671539	760.647217	109.699898	193.656128	503.688354	58.259628	150.015167	320.261414	123.451607	181.690491	91.122147	42.095810	145.169876	72.439857	-13.834724	329.593170	56.373829	49.929745	110.938034	678.204712	-345.935242	112.431213	457.415649	-253.716705	55.947094	322.951782	-308.256897	-18.225788	72.477219	-212.007996	-67.323120	61.064117	-156.405029	120.538246	41.783596	-213.630234
443	4.42000000	67.164513	1475.528198	48.226330	105.969261	1483.614868	-318.063080	51.739456	1543.588867	-141.657181	199.288376	1418.501709	-131.473282	75.890457	1162.011597	176.134171	33.352989	1174.542114	-435.887665	194.854881	935.571716	154.602039	110.275970	923.254120	-420.421936	143.651703	947.756836	13.275336	166.525269	934.109985	-283.229187	-47.222702	963.522949	-92.824142	-41.426304	955.337524	-199.140091	-44.324503	959.430237	-145.982117	-38.161758	1215.427979	-158.101196	241.788055	1257.827393	-118.775162	124.202713	758.700317	109.074234	197.095734	501.921112	56.699684	152.413620	318.417664	121.352562	182.485916	89.684364	39.101376	145.813049	71.278885	-17.011324	330.078461	54.245914	47.318298	113.004868	677.985046	-345.803772	113.897629	456.984314	-253.715637	56.444878	322.859680	-308.345795	-18.220184	72.441246	-211.980316	-67.298264	61.154678	-156.382477	120.516922	41.760506	-213.726639
444	4.43000000	69.548607	1474.740234	49.918159	107.515602	1482.863525	-316.506409	53.590656	1542.859253	-140.005325	201.335770	1417.988647	-130.108643	78.323174	1160.995728	177.397949	36.612816	1173.617310	-434.708801	196.749245	934.313416	155.426628	114.388260	922.635132	-419.407562	147.818054	946.671082	13.654517	169.100555	934.102722	-283.002045	-43.682102	962.501160	-91.313515	-38.426819	954.560669	-197.718307	-41.054461	958.530914	-144.515911	-35.797073	1214.560425	-156.113220	244.095734	1257.394897	-117.717087	128.867599	756.743347	108.336174	200.457703	500.118530	55.064072	154.783798	316.563568	119.317169	182.868118	88.210953	36.206463	145.998703	70.022919	-20.037731	330.167633	52.261326	44.827438	115.140190	677.747864	-345.628845	115.390167	456.551605	-253.672409	56.971573	322.771729	-308.398285	-18.210716	72.412018	-211.949509	-67.275230	61.247292	-156.358978	120.499870	41.738487	-213.820267
445	4.44000000	71.953918	1473.939087	51.667095	108.982094	1482.160156	-314.885742	55.437351	1542.134521	-138.277786	203.398880	1417.514404	-128.711105	80.848412	1159.967651	178.698608	39.789341	1172.733276	-433.461609	198.764595	933.057709	156.296173	118.613098	922.122223	-418.311508	152.084137	945.660278	14.039709	171.778198	934.094116	-282.718719	-40.049892	961.518860	-89.784340	-35.326412	953.792664	-196.280899	-37.688152	957.655762	-143.032619	-33.389935	1213.692017	-154.085754	246.458267	1257.010376	-116.641487	133.612808	754.815369	107.522003	203.751450	498.316833	53.389137	157.184998	314.735779	117.393639	182.959824	86.733452	33.474266	145.858643	68.702904	-22.848986	329.995972	50.474892	42.521835	117.351952	677.485901	-345.403107	116.918007	456.115845	-253.576843	57.549065	322.682617	-308.403595	-18.193859	72.392067	-211.910568	-67.251053	61.342026	-156.331650	120.487991	41.718910	-213.908691
446	4.45000000	74.381943	1473.126953	53.467808	110.382729	1481.508545	-313.204956	57.286037	1541.417847	-136.479462	205.482559	1417.079468	-127.282043	83.463486	1158.932251	180.034454	42.879951	1171.897217	-432.148773	200.904549	931.812256	157.215691	122.936619	921.718811	-417.134384	156.427277	944.730042	14.434415	174.553528	934.079224	-282.374725	-36.341019	960.585144	-88.246628	-32.134056	953.039062	-194.836624	-34.237537	956.812103	-141.541626	-30.940434	1212.828247	-152.030029	248.877289	1256.673096	-115.547813	138.387497	752.960083	106.673943	206.988983	496.552887	51.716991	159.662674	312.972717	115.627098	182.872742	85.285866	30.960331	145.513168	67.358162	-25.389599	329.683105	48.922661	40.452023	119.647697	677.192017	-345.119141	118.488968	455.675110	-253.419800	58.196178	322.588135	-308.351868	-18.166698	72.383545	-211.858505	-67.222534	61.439175	-156.297562	120.481689	41.702930	-213.990005
447	4.46000000	76.834259	1472.306030	55.314693	111.733795	1480.912231	-311.468262	59.143673	1540.712402	-134.615753	207.591736	1416.684082	-125.822746	86.165291	1157.894409	181.403549	45.884865	1171.115967	-430.773438	203.172089	930.584259	158.189663	127.344189	921.426483	-415.877060	160.823318	943.884338	14.842730	177.420227	934.053284	-281.966614	-32.571774	959.707886	-86.710091	-28.860312	952.304871	-193.393799	-30.716043	956.006378	-140.051945	-28.448971	1211.974365	-149.957687	251.353714	1256.381470	-114.435333	143.145050	751.223145	105.838470	210.183914	494.861877	50.093494	162.245865	311.311920	114.057419	182.702744	83.902519	28.709892	145.065781	66.032875	-27.616123	329.327789	47.622353	38.652328	122.033142	676.859680	-344.769714	120.108742	455.227783	-253.193726	58.926991	322.485596	-308.234924	-18.127043	72.388039	-211.788910	-67.186661	61.539230	-156.253845	120.480896	41.691410	-214.062866
448	4.47000000	79.312424	1471.478394	57.201923	113.053513	1480.374023	-309.680450	61.017475	1540.020874	-132.692474	209.731247	1416.326904	-124.334412	88.950409	1156.858154	182.803696	48.807056	1170.395264	-429.339233	205.569496	929.380615	159.221962	131.820713	921.245026	-414.540680	165.247147	943.125305	15.269300	180.370407	934.011597	-281.491730	-28.759411	958.893555	-85.183784	-25.517113	951.594482	-191.960052	-27.138262	955.244019	-138.571918	-25.916246	1211.135254	-147.880692	253.887650	1256.132690	-113.303169	147.844360	749.647827	105.064369	213.350266	493.275269	48.565746	164.945877	309.787323	112.717285	182.526627	82.615631	26.755791	144.599915	64.771904	-29.499224	329.004608	46.575317	37.141014	124.510918	676.484131	-344.347931	121.780426	454.772583	-252.893188	59.749504	322.374298	-308.046814	-18.073442	72.406563	-211.698410	-67.141068	61.642838	-156.197937	120.485023	41.684845	-214.126602
